:SAMPLES-PER-SECOND 30
:FULLY-SPECIFIED
:DEGREES
131
root  -19.8748 32.6246 10.2397 -166.044 83.2286 -178.935
RightUpLeg  -23.0933 0.0276426 -17.9328
RightLeg  19.6564 10.0366 2.85591
RightFoot  4.17369 -0.0119903 0.805882
RightToes  -49.5039 -0.298499 -0.362281
Spine  2.02251 -4.60979 2.7571
Spine1  3.73431 -9.00152 5.11082
HEad  -69.1463 47.0256 -20.1866
LeftShoulder1  -1.94126e-019 -3.10601e-018 -2.51263e-017
LeftArm  45.3856 -26.1514 -105.516
LeftForeArm  50.4748 -42.2261 -6.85108
LeftHand  -0.877001 -11.829 6.31697
RightShoulder  -4.96962e-017 0 -2.36833e-017
RightArm  -70.4581 9.51607 50.6026
RightForeArm  128.185 79.9654 112.184
RightHand  0.343378 -8.33649 -14.4243
LeftUpLeg  -32.5144 10.4348 13.5414
LeftLeg  33.296 0.524628 0.293022
LeftFoot  9.3345 0.000856962 0.151013
LeftToes  -39.795 1.9075e-006 4.29692e-008
132
root  -19.6291 32.0729 9.54551 -153.716 86.2675 -166.252
RightUpLeg  -25.9275 -0.773196 -18.4297
RightLeg  24.5315 13.6334 5.12877
RightFoot  2.04532 -0.00155122 0.540957
RightToes  -52.5908 -0.32604 -0.374669
Spine  2.02286 -4.38556 2.95529
Spine1  3.75266 -8.52443 5.40439
HEad  -68.1588 47.221 -17.8818
LeftShoulder1  -1.94126e-019 -3.10601e-018 -2.51263e-017
LeftArm  45.1698 -19.6885 -102.422
LeftForeArm  49.1142 -47.0962 -8.50446
LeftHand  -0.7639 -11.5093 5.65294
RightShoulder  -4.96962e-017 0 -2.36833e-017
RightArm  -73.626 13.1985 45.5218
RightForeArm  144.226 78.1525 128.608
RightHand  0.274523 -7.71589 -14.7439
LeftUpLeg  -32.519 7.01365 14.6912
LeftLeg  35.9395 5.55806 3.49241
LeftFoot  5.75098 -0.0274896 0.70748
LeftToes  -45.1699 1.9075e-006 4.29692e-008
133
root  -19.3686 31.5928 9.0115 -150.99 86.6266 -161.64
RightUpLeg  -26.2332 -2.07215 -18.9122
RightLeg  29.5466 14.389 6.86565
RightFoot  0.0271253 8.22565e-005 0.0149626
RightToes  -53.7162 -0.336241 -0.378814
Spine  2.54205 -4.24926 3.12452
Spine1  4.81898 -8.2504 5.6503
HEad  -66.8515 45.7789 -15.8591
LeftShoulder1  -1.94126e-019 -3.10601e-018 -2.51263e-017
LeftArm  42.2523 -13.1202 -98.6276
LeftForeArm  48.9563 -51.9529 -10.4248
LeftHand  -0.628242 -11.3386 4.76802
RightShoulder  -4.96962e-017 0 -2.36833e-017
RightArm  -78.4064 17.0028 40.4043
RightForeArm  151.07 76.277 137.383
RightHand  0.452279 -8.37855 -18.1655
LeftUpLeg  -34.3584 6.08757 14.4405
LeftLeg  44.1763 6.07957 5.16019
LeftFoot  3.22202 -0.00971897 0.5071
LeftToes  -43.8994 1.9075e-006 4.29692e-008
134
root  -18.964 31.3336 8.5784 -171.939 86.0497 179.136
RightUpLeg  -25.9127 -6.42216 -19.502
RightLeg  34.4187 10.7214 6.30054
RightFoot  -0.924744 -0.00515001 -0.152264
RightToes  -51.7629 -0.318588 -0.371492
Spine  2.40377 -3.70316 2.51299
Spine1  4.59286 -7.14915 4.60553
HEad  -62.7961 42.6561 -11.1164
LeftShoulder1  -1.94126e-019 -3.10601e-018 -2.51263e-017
LeftArm  38.6072 -4.83769 -94.0531
LeftForeArm  45.2294 -54.2486 -11.7883
LeftHand  -0.564409 -10.1078 4.62338
RightShoulder  -4.96962e-017 0 -2.36833e-017
RightArm  -82.4895 18.2301 37.4716
RightForeArm  154.724 73.4434 145.377
RightHand  0.856852 -9.70474 -23.0894
LeftUpLeg  -33.677 8.75829 12.2952
LeftLeg  46.4118 3.93971 3.62346
LeftFoot  1.47277 -0.000726159 0.218031
LeftToes  -44.8378 1.9075e-006 4.29692e-008
135
root  -18.4303 31.2271 8.43364 -167.824 85.1203 -174.75
RightUpLeg  -24.0709 -9.25643 -18.3932
RightLeg  36.8923 7.03698 4.56782
RightFoot  -1.31609 -0.00706863 -0.101659
RightToes  -49.6775 -0.300031 -0.363017
Spine  1.92607 -2.71051 2.49534
Spine1  3.68031 -5.10447 4.61115
HEad  -57.4296 39.0386 -6.3892
LeftShoulder1  -1.94126e-019 -3.10601e-018 -2.51263e-017
LeftArm  32.0924 4.56454 -89.6755
LeftForeArm  38.3024 -53.2797 -11.8655
LeftHand  -0.439617 -9.10719 3.90553
RightShoulder  -4.96962e-017 0 -2.36833e-017
RightArm  -84.6083 20.3102 36.4199
RightForeArm  155.996 71.3845 149.457
RightHand  1.32875 -11.0104 -27.0415
LeftUpLeg  -31.2523 10.7158 12.8922
LeftLeg  46.7602 1.61677 1.50305
LeftFoot  -0.587125 -0.000444295 0.0747685
LeftToes  -45.3074 1.9075e-006 4.29692e-008
136
root  -17.8737 31.3624 8.46589 -172.174 83.0023 -177.19
RightUpLeg  -20.5945 -11.01 -18.521
RightLeg  37.227 5.54761 3.64873
RightFoot  -1.26772 -0.00613045 -0.0209783
RightToes  -49.3931 -0.297524 -0.361809
Spine  1.2455 -2.01864 2.22766
Spine1  2.38417 -3.63399 4.16482
HEad  -52.694 34.3152 -3.03035
LeftShoulder1  -1.94126e-019 -3.10601e-018 -2.51263e-017
LeftArm  23.8452 13.1829 -84.1299
LeftForeArm  34.1392 -51.102 -11.1857
LeftHand  -0.418892 -7.07905 4.25075
RightShoulder  -4.96962e-017 0 -2.36833e-017
RightArm  -84.7828 24.9978 38.0928
RightForeArm  159.131 69.2896 153.026
RightHand  1.47067 -11.2457 -28.5835
LeftUpLeg  -28.8117 9.31803 13.2812
LeftLeg  45.8798 1.03364 0.929074
LeftFoot  -0.483403 -0.00252661 0.132636
LeftToes  -44.6133 1.9075e-006 4.29692e-008
137
root  -17.3117 31.6803 8.58787 -176.977 80.4098 179.916
RightUpLeg  -16.1056 -12.4046 -19.4389
RightLeg  36.1374 6.36373 4.01552
RightFoot  -0.422714 -0.00191601 0.0775874
RightToes  -50.4662 -0.307013 -0.366302
Spine  0.388027 -0.780376 1.90399
Spine1  0.757997 -1.081 3.67118
HEad  -46.5757 26.3977 -0.427161
LeftShoulder1  -1.94126e-019 -3.10601e-018 -2.51263e-017
LeftArm  15.3208 17.8229 -79.9417
LeftForeArm  28.2366 -44.9223 -9.17223
LeftHand  -0.495423 -4.99775 5.8373
RightShoulder  -4.96962e-017 0 -2.36833e-017
RightArm  -83.436 30.7091 41.4479
RightForeArm  162.125 67.7866 155.272
RightHand  1.42183 -11.035 -28.6663
LeftUpLeg  -25.5777 6.52115 13.3607
LeftLeg  43.2153 0.899483 0.734991
LeftFoot  0.997516 -0.00169874 0.21271
LeftToes  -46.5556 1.9075e-006 4.29692e-008
138
root  -16.7773 32.0791 8.85724 -178.865 78.3736 179.908
RightUpLeg  -11.6318 -12.8393 -19.876
RightLeg  34.3663 7.91796 4.65955
RightFoot  0.735039 0.00112201 0.253494
RightToes  -51.167 -0.313254 -0.36914
Spine  -0.438931 1.09343 1.80448
Spine1  -0.824414 2.67848 3.68272
HEad  -39.7119 17.5058 0.328225
LeftShoulder1  -1.94126e-019 -3.10601e-018 -2.51263e-017
LeftArm  6.11599 18.584 -76.6158
LeftForeArm  20.1151 -39.3734 -7.90391
LeftHand  -0.554103 -1.72829 9.21502
RightShoulder  -4.96962e-017 0 -2.36833e-017
RightArm  -79.3767 38.8887 48.1263
RightForeArm  165.436 68.8536 154.378
RightHand  1.21331 -9.87406 -30.6518
LeftUpLeg  -21.7748 3.40328 13.8531
LeftLeg  39.442 1.67619 1.20036
LeftFoot  3.02325 -0.00432156 0.32529
LeftToes  -46.748 1.9075e-006 4.29692e-008
139
root  -16.3254 32.4463 9.28556 179.682 76.9477 -179.804
RightUpLeg  -7.7849 -11.7164 -19.6549
RightLeg  32.4221 8.77793 4.7731
RightFoot  1.65995 0.000369614 0.430236
RightToes  -52.4809 -0.325048 -0.373543
Spine  -1.13328 2.97492 1.47263
Spine1  -2.13729 6.44507 3.20112
HEad  -35.0868 10.2211 0.78502
LeftShoulder1  -1.94126e-019 -3.10601e-018 -2.51263e-017
LeftArm  -1.78 17.7446 -72.2655
LeftForeArm  19.5499 -40.3343 -8.25654
LeftHand  -0.501293 0.233774 11.3418
RightShoulder  -4.96962e-017 0 -2.36833e-017
RightArm  -69.2439 47.5223 61.9521
RightForeArm  162.848 74.0112 145.457
RightHand  1.61976 -10.0381 -38.5537
LeftUpLeg  -18.1914 -0.120147 14.5242
LeftLeg  35.7189 2.84504 1.7734
LeftFoot  5.61691 -0.0199571 0.568345
LeftToes  -45.3031 1.9075e-006 4.29692e-008
140
root  -16.0365 32.6335 9.83109 178.221 75.3952 -179.891
RightUpLeg  -5.13977 -10.8418 -18.9518
RightLeg  31.5833 7.92119 4.16334
RightFoot  1.29352 0.00143752 0.329765
RightToes  -52.8039 -0.327965 -0.375469
Spine  -1.71803 4.30434 1.04246
Spine1  -3.23325 8.97299 2.49618
HEad  -32.9893 5.30985 1.77329
LeftShoulder1  -1.94126e-019 -3.10601e-018 -2.51263e-017
LeftArm  -9.99628 16.2635 -67.838
LeftForeArm  21.4063 -46.411 -10.2818
LeftHand  -0.524851 0.0903467 11.5638
RightShoulder  -4.96962e-017 0 -2.36833e-017
RightArm  -52.4131 53.0721 78.7629
RightForeArm  110.78 80.9305 88.4805
RightHand  2.53317 -11.0169 -48.3598
LeftUpLeg  -15.9541 -2.37646 15.1148
LeftLeg  33.0876 3.78369 2.12485
LeftFoot  7.92965 -0.0461201 0.826938
LeftToes  -45.1734 1.9075e-006 4.29692e-008
141
root  -15.8195 32.6121 10.4837 178.036 73.186 -178.615
RightUpLeg  -2.69709 -11.5476 -17.6882
RightLeg  31.622 5.85737 3.08706
RightFoot  -0.83407 -0.00387433 0.00995467
RightToes  -50.9827 -0.311609 -0.368401
Spine  -2.07101 4.73442 0.826438
Spine1  -3.88276 9.65936 2.06075
HEad  -32.6372 2.61035 3.67399
LeftShoulder1  -1.94126e-019 -3.10601e-018 -2.51263e-017
LeftArm  -18.3038 14.8619 -63.8678
LeftForeArm  21.895 -54.6043 -14.1523
LeftHand  -0.528323 -0.431297 10.6397
RightShoulder  -4.96962e-017 0 -2.36833e-017
RightArm  -32.1035 52.4471 89.2231
RightForeArm  64.2416 74.1119 32.3626
RightHand  1.41766 -10.5193 -31.2349
LeftUpLeg  -14.6388 -2.03485 16.1163
LeftLeg  31.3324 4.0652 2.12225
LeftFoot  9.16227 -0.0606511 0.918455
LeftToes  -44.0342 1.9075e-006 4.29692e-008
142
root  -15.6773 32.4359 11.1627 178.307 69.3872 -176.621
RightUpLeg  0.411354 -14.0464 -16.6077
RightLeg  31.877 4.22899 2.25205
RightFoot  -3.99629 -0.0259773 -0.224095
RightToes  -47.9032 -0.284491 -0.355278
Spine  -1.98536 4.42419 0.80294
Spine1  -3.68477 8.99398 1.97256
HEad  -33.5914 0.356076 5.65126
LeftShoulder1  -1.94126e-019 -3.10601e-018 -2.51263e-017
LeftArm  -25.2654 12.9143 -60.5505
LeftForeArm  25.3785 -62.9126 -20.1061
LeftHand  -0.446687 -0.304488 9.19913
RightShoulder  -4.96962e-017 0 -2.36833e-017
RightArm  -6.72811 50.8506 90.5183
RightForeArm  73.0711 68.0997 19.9086
RightHand  -0.833118 3.34955 -11.2816
LeftUpLeg  -14.128 -3.29764 17.5952
LeftLeg  29.9506 2.78876 1.37104
LeftFoot  9.16727 -0.0465172 0.663949
LeftToes  -42.9517 1.9075e-006 4.29692e-008
